<?xml version="1.0" standalone="no"?>
<!DOCTYPE svg PUBLIC "-//W3C//DTD SVG 20010904//EN"
 "http://www.w3.org/TR/2001/REC-SVG-20010904/DTD/svg10.dtd">
<svg version="1.0" xmlns="http://www.w3.org/2000/svg"
 width="735.000000pt" height="572.000000pt" viewBox="0 0 735.000000 572.000000"
 preserveAspectRatio="xMidYMid meet">

<g transform="translate(0.000000,572.000000) scale(0.100000,-0.100000)"
fill="#000000" stroke="none">
<path d="M2120 5709 c-570 -73 -1045 -462 -1225 -1003 -75 -226 -70 -89 -70
-1846 l0 -1575 23 -104 c133 -594 557 -1014 1164 -1154 92 -21 102 -21 1593
-25 1036 -2 1531 0 1600 8 641 70 1151 530 1296 1170 l24 105 0 1580 0 1580
-23 95 c-74 305 -196 531 -397 735 -191 193 -412 323 -675 395 -181 50 -188
50 -1769 49 -812 -1 -1505 -5 -1541 -10z m3080 -489 c445 -71 785 -423 840
-870 8 -69 10 -492 8 -1555 l-3 -1460 -26 -95 c-106 -382 -385 -648 -774 -736
-75 -17 -167 -18 -1570 -17 -1470 0 -1491 1 -1582 21 -364 82 -651 355 -755
717 l-23 80 0 1550 0 1550 23 80 c52 179 126 307 252 439 148 154 339 258 536
291 101 17 2968 21 3074 5z"/>
<path d="M5165 4757 c-58 -19 -82 -34 -132 -80 -65 -60 -95 -126 -101 -217 -3
-60 0 -86 18 -132 41 -109 146 -195 258 -212 50 -8 153 9 196 31 56 29 123
102 151 164 24 54 27 70 23 142 -7 134 -69 231 -184 284 -65 30 -171 39 -229
20z"/>
<path d="M3525 4273 c-199 -18 -465 -115 -632 -229 -310 -213 -511 -500 -597
-854 -64 -264 -50 -543 40 -802 73 -209 175 -371 338 -534 303 -302 695 -448
1113 -413 347 28 654 170 898 415 199 199 323 430 387 719 31 141 31 425 0
565 -134 609 -616 1054 -1222 1129 -80 10 -236 12 -325 4z m351 -447 c239 -51
442 -179 584 -368 110 -146 169 -287 196 -471 43 -291 -57 -595 -265 -810
-128 -133 -295 -232 -471 -279 -120 -32 -366 -32 -484 0 -362 100 -620 359
-718 722 -32 122 -33 346 0 474 130 514 647 840 1158 732z"/>
</g>
</svg>
